# xmcd
#
# Track frame offsets: 
#        150
#        20764
#        37898
#        50238
#        63888
#        84819
#        96237
#        115385
#        131444
#        150308
#        165966
#        184115
#        210251
#        230803
#        239260
#        261450
#
# Disc length: 3896 seconds
#
# Revision: 2
# Processed by: cddbd v1.4PL0 Copyright (c) Steve Scherf et al.
# Submitted via: ExactAudioCopy v0.95a4
#
DISCID=cd0f3610
DTITLE=Ipelegeng and Serankure - Master Drummers of Africa
DYEAR=2001
DGENRE=WORLD
TTITLE0=Wawa-Nko - Ipelegeng
TTITLE1=Djola - Ipelegeng
TTITLE2=Kopano -Serankure
TTITLE3=Meropa le Di Kota - Ipelegeng
TTITLE4=Mthandazo - Ipelegeng
TTITLE5=Tsie - Serankure
TTITLE6=Malowe - Ipelegeng
TTITLE7=Dikosha - Ipelegeng
TTITLE8=Thulandi - Ipelegeng
TTITLE9=Mona - Ipelegeng
TTITLE10=Meropa Ya Ba Dimo - Serankure
TTITLE11=Leato - Ipelegeng
TTITLE12=Do It - Ipelegeng
TTITLE13=Imbizo - Ipelegeng
TTITLE14=Nzombia - Ipelegeng
TTITLE15=Wawa-Nko Children's Dance - Ipelegeng
EXTD=
EXTT0=
EXTT1=
EXTT2=
EXTT3=
EXTT4=
EXTT5=
EXTT6=
EXTT7=
EXTT8=
EXTT9=
EXTT10=
EXTT11=
EXTT12=
EXTT13=
EXTT14=
EXTT15=
PLAYORDER=
